<svg width="1920" height="555" viewBox="0 0 1920 555" fill="none" xmlns="http://www.w3.org/2000/svg">
<path d="M1934 31.5895V552.5H936.5H-33V9.51276C-33 9.51276 -27.9014 110.529 82.3812 109.232C166.177 108.247 140.669 47.2694 224.35 49.1761C267.293 50.1545 279.304 69.4228 322.174 68.0723C390.881 65.9078 347.422 25.3554 400.934 9.13855C527.995 -29.3672 561.153 100.017 722.998 109.232C923.442 120.645 994.583 -30.3751 1167.47 9.13855C1268.1 32.1388 1194.4 123.084 1306.43 109.232C1361.84 102.381 1352.62 60.4066 1407.26 68.0723C1450.71 74.1675 1419.78 96.5607 1451.41 109.232C1536.38 143.277 1501.72 0.934265 1624.48 9.13855C1719.73 15.5048 1666.96 82.8138 1763.44 85.6588C1850.58 88.2288 1934 31.5895 1934 31.5895Z" fill="#AED581" stroke="#CACACA" stroke-width="4"/>
</svg>
