<svg width="1920" height="226" viewBox="0 0 1920 226" fill="none" xmlns="http://www.w3.org/2000/svg">
<g filter="url(#filter0_d_148_7934)">
<path d="M1920 152.404V116V37H0V143.221C0 143.221 113.678 173.14 160.961 172.082C208.243 171.023 226.474 143.221 273.784 143.221C321.094 143.221 340.618 179.342 386.607 172.082C415.863 167.463 422.54 151.578 449.788 143.221C541.372 115.133 615.39 202.748 705.019 172.082C730.146 163.485 734.328 143.221 762.685 143.221C791.041 143.221 795.275 163.421 820.35 172.082C911.846 203.682 978.186 140.976 1081.6 143.221C1168.08 145.098 1214.46 184.942 1298.72 172.082C1339 165.934 1354.18 138.864 1395 143.221C1425.5 146.476 1431.45 165.529 1460.68 172.082C1523.77 186.223 1559.01 141.558 1625.66 143.221C1684.02 144.677 1715.4 187.908 1768.57 172.082C1792.17 165.053 1818.21 143.221 1818.21 143.221C1818.21 143.221 1839.95 170.096 1864.84 172.082C1889.2 174.025 1920 152.404 1920 152.404Z" fill="white"/>
<path d="M1920 152.404V116V37H0V143.221C0 143.221 113.678 173.14 160.961 172.082C208.243 171.023 226.474 143.221 273.784 143.221C321.094 143.221 340.618 179.342 386.607 172.082C415.863 167.463 422.54 151.578 449.788 143.221C541.372 115.133 615.39 202.748 705.019 172.082C730.146 163.485 734.328 143.221 762.685 143.221C791.041 143.221 795.275 163.421 820.35 172.082C911.846 203.682 978.186 140.976 1081.6 143.221C1168.08 145.098 1214.46 184.942 1298.72 172.082C1339 165.934 1354.18 138.864 1395 143.221C1425.5 146.476 1431.45 165.529 1460.68 172.082C1523.77 186.223 1559.01 141.558 1625.66 143.221C1684.02 144.677 1715.4 187.908 1768.57 172.082C1792.17 165.053 1818.21 143.221 1818.21 143.221C1818.21 143.221 1839.95 170.096 1864.84 172.082C1889.2 174.025 1920 152.404 1920 152.404Z" stroke="#D6D6D6"/>
</g>
<defs>
<filter id="filter0_d_148_7934" x="-40.5" y="0.5" width="2001" height="225" filterUnits="userSpaceOnUse" color-interpolation-filters="sRGB">
<feFlood flood-opacity="0" result="BackgroundImageFix"/>
<feColorMatrix in="SourceAlpha" type="matrix" values="0 0 0 0 0 0 0 0 0 0 0 0 0 0 0 0 0 0 127 0" result="hardAlpha"/>
<feOffset dy="4"/>
<feGaussianBlur stdDeviation="20"/>
<feComposite in2="hardAlpha" operator="out"/>
<feColorMatrix type="matrix" values="0 0 0 0 1 0 0 0 0 1 0 0 0 0 1 0 0 0 0.12 0"/>
<feBlend mode="normal" in2="BackgroundImageFix" result="effect1_dropShadow_148_7934"/>
<feBlend mode="normal" in="SourceGraphic" in2="effect1_dropShadow_148_7934" result="shape"/>
</filter>
</defs>
</svg>
