<svg width="1920" height="1079" viewBox="0 0 1920 1079" fill="none" xmlns="http://www.w3.org/2000/svg">
<path d="M395.185 742.879C396.723 744.85 400.652 742.879 398.943 740.909C393.477 734.238 385.96 729.387 377.248 726.507C375.71 726.052 374.514 728.326 376.052 728.933C383.91 732.116 390.231 736.664 395.185 742.879ZM1765.44 186.216C1767.49 184.852 1765.78 181.82 1763.39 183.033C1749.72 190.309 1735.54 192.583 1720.34 187.732C1718.29 187.126 1717.61 189.854 1719.49 190.461C1734.18 195.918 1752.46 195.009 1765.44 186.216ZM1743.4 177.878C1751.26 178.03 1759.46 178.485 1767.32 178.333C1770.05 178.181 1770.05 174.543 1767.32 174.392C1759.46 174.088 1751.26 174.695 1743.4 174.846C1741.18 174.846 1741.18 177.878 1743.4 177.878ZM396.552 746.215C381.86 737.422 365.118 731.055 348.035 727.113C346.668 726.81 346.156 728.478 347.523 728.933C364.264 734.087 379.639 740.909 394.502 749.55C396.723 750.762 398.773 747.579 396.552 746.215ZM777.51 889.928C786.906 850.362 810.139 789.723 764.185 760.161C748.81 750.308 726.431 749.095 710.544 759.1C693.631 769.712 693.289 787.904 698.414 803.973C704.735 823.377 720.11 846.875 705.589 866.279C688.506 889.17 646.652 884.471 639.306 856.729C633.156 833.383 655.194 813.069 653.485 789.723C652.289 774.26 641.356 759.252 621.881 761.374C611.973 762.435 603.26 767.438 594.377 771.228C588.91 773.654 583.444 775.928 577.294 776.534C569.264 777.444 562.089 774.563 554.914 771.834C545.348 768.196 536.123 765.164 525.531 766.983C515.281 768.802 506.398 774.412 498.027 779.717C488.802 785.63 479.406 792.148 468.131 794.877C452.756 798.515 436.698 793.664 423.543 786.691C400.652 774.715 383.739 755.007 358.968 745.76C318.652 730.752 269.11 745.911 243.143 776.079C213.418 810.492 212.906 857.941 231.527 896.75C242.289 919.035 258.006 939.5 265.522 962.998C272.697 985.131 269.452 1007.87 252.71 1025.91C221.106 1060.47 157.556 1066.84 123.047 1031.82C103.06 1011.51 102.547 983.767 106.818 958.602C111.26 933.133 119.289 908.271 124.414 882.955C129.197 860.064 137.227 832.776 127.66 810.037C121.168 794.574 106.477 784.265 88.5391 780.627C70.089 776.837 50.1015 779.869 33.3598 787.449C13.3723 796.696 -0.977675 813.675 -10.5443 831.412C-19.086 847.784 -24.5527 865.066 -29.336 882.5C-58.2069 833.989 -68.4569 779.111 -72.2152 724.688C-76.1444 666.929 -74.9486 608.868 -74.2652 551.109C-72.5569 428.316 -66.4069 305.523 -62.136 182.729C-61.111 153.016 -60.086 123.303 -59.061 93.5905C-58.036 65.5451 -59.5735 35.9837 -53.0819 8.39309C-47.1027 -16.772 -31.2152 -36.7827 -4.73601 -47.8493C18.1557 -57.3999 44.2932 -59.977 69.2349 -61.0382C136.714 -64.0702 204.535 -63.4638 272.014 -64.2218C340.689 -64.9797 409.364 -65.5861 478.039 -66.0409C754.277 -67.8601 1030.51 -67.1021 1306.75 -66.3441C1443.76 -65.8893 1580.94 -66.0409 1717.95 -61.3414C1785.6 -59.0675 1853.08 -55.5807 1920.39 -50.4265C1954.72 -47.6977 1989.06 -44.6658 2023.4 -40.8759C2050.05 -37.9955 2090.71 -38.6019 2107.11 -15.8624C2115.65 -3.88624 2117.02 12.0314 2119.07 25.8267C2121.12 40.8348 2122.48 55.8429 2122.99 71.0026C2124.19 101.17 2122.48 131.49 2119.07 161.506C2112.4 221.993 2099.08 281.57 2088.32 341.451C2066.96 460.758 2055.34 581.277 2053.98 702.1C2053.64 729.387 2053.98 756.675 2054.66 783.962C2045.78 797.757 2026.13 805.186 2008.71 799.577C1994.02 794.877 1981.37 783.811 1964.8 790.329C1926.71 805.489 1949.09 848.997 1946.35 875.83C1944.3 895.234 1924.83 912.061 1902.11 904.633C1878.19 896.75 1878.02 873.859 1884.51 855.516C1892.03 834.595 1909.45 795.484 1874.77 784.872C1862.82 781.233 1849.32 784.872 1839.41 791.239C1826.77 799.425 1820.62 811.704 1819.25 825.348C1817.54 842.933 1823.35 860.518 1828.48 877.194C1834.46 896.902 1840.44 916.609 1846.42 936.317C1857.18 971.639 1874.94 1013.02 1854.96 1048.35C1846.93 1062.29 1833.26 1074.42 1815.32 1077.45C1804.73 1079.27 1793.8 1077.61 1783.72 1074.57C1773.13 1071.39 1760.32 1066.54 1754.34 1057.59C1748.87 1049.71 1749.55 1039.86 1750.58 1031.06C1751.6 1021.36 1753.48 1011.66 1755.7 1002.11C1759.8 984.373 1765.61 967.091 1771.25 949.809C1781.84 917.064 1792.94 883.41 1792.09 848.846C1791.41 821.71 1782.52 781.385 1745.28 777.443C1738.62 776.685 1732.47 777.747 1726.32 780.172C1715.22 784.417 1706.16 788.207 1693.69 786.236C1683.1 784.72 1673.53 780.475 1664.31 776.079C1656.62 772.289 1648.59 768.196 1639.54 767.59C1621.09 766.377 1607.93 781.991 1589.48 782.295C1568.3 782.749 1549.51 771.38 1533.45 760.313C1521.66 752.127 1508.34 743.334 1492.45 746.366C1481.34 748.488 1476.22 754.704 1474.51 762.587C1473.66 766.529 1473.66 770.773 1474.17 775.17C1475.36 784.72 1475.71 794.119 1467.34 801.547C1459.65 808.218 1445.13 808.369 1439.66 799.273C1434.88 791.39 1441.71 782.446 1444.79 775.17C1447.35 769.409 1448.71 763.345 1446.15 757.433C1441.88 747.124 1428.21 740.909 1416.26 742.273C1402.76 743.789 1392.34 753.794 1387.56 764.709C1373.21 798.364 1406.52 831.715 1411.99 864.005C1414.72 879.316 1410.28 896.295 1396.95 907.21C1382.09 919.49 1361.42 916.003 1349.97 901.904C1346.39 897.356 1343.82 892.809 1342.29 887.957C1333.23 860.367 1354.41 828.38 1358.51 801.244C1360.74 785.933 1361.93 766.983 1353.9 752.733C1347.41 741.06 1332.89 733.329 1318.2 734.087C1306.75 734.542 1296.5 739.848 1289.84 747.731C1289.33 748.337 1288.99 748.792 1288.47 749.398C1287.96 749.398 1287.62 749.55 1287.11 749.853C1235.51 780.93 1172.99 737.27 1117.3 747.731C1095.26 751.824 1075.79 763.042 1056.82 773.35C1037.52 783.659 1015.99 795.332 992.419 793.513C979.777 792.603 968.331 785.781 955.519 785.63C946.806 785.478 939.802 789.116 933.994 794.574C923.744 804.276 908.54 830.199 892.652 811.098C884.11 800.941 881.035 783.81 865.319 779.869C846.869 775.169 835.935 793.816 834.056 807.308C830.81 830.806 842.085 855.213 852.165 876.436C862.415 897.963 874.031 919.035 877.79 942.381C881.377 963.756 878.985 987.86 862.073 1004.69C847.21 1019.39 824.148 1023.18 803.477 1017.72C779.39 1011.51 763.502 994.227 761.623 971.942C761.281 967.243 761.452 962.543 761.794 957.844C762.648 949.203 764.698 940.713 766.748 932.224C770.848 917.519 774.265 903.724 777.51 889.928ZM1556.34 752.582C1544.04 744.244 1528.15 738.635 1513.12 735.906C1511.24 735.603 1510.39 738.028 1512.26 738.483C1527.3 742.879 1540.28 748.943 1554.12 755.917C1556.68 757.129 1558.56 753.946 1556.34 752.582ZM1537.04 739.09C1535.67 738.786 1535.16 740.605 1536.52 741.06C1540.11 742.273 1543.7 743.637 1547.12 745.608C1550.36 747.427 1553.09 750.004 1556 752.127C1557.88 753.643 1560.44 751.369 1558.73 749.701C1553.44 744.244 1544.72 740.454 1537.04 739.09ZM1371.84 905.694C1367.06 902.966 1362.27 900.995 1358.34 897.053C1354.41 892.96 1351.85 887.958 1350.83 882.803C1350.66 881.894 1349.12 882.045 1349.12 882.955C1349.8 893.263 1357.83 906.604 1370.64 908.423C1372.35 908.575 1373.38 906.604 1371.84 905.694ZM1360.74 890.838C1363.47 898.114 1372.69 903.724 1381.41 902.056C1383.29 901.753 1382.94 898.872 1380.89 899.024C1373.04 899.63 1365.86 896.902 1362.44 890.231C1362.1 889.322 1360.39 889.928 1360.74 890.838ZM2001.7 783.507C1994.19 778.353 1983.59 776.079 1974.03 775.928C1970.27 775.928 1960.87 775.928 1962.75 781.537C1963.09 782.598 1964.8 782.295 1964.8 781.233C1965.14 776.837 1982.23 780.021 1984.45 780.627C1989.92 781.991 1994.7 784.417 1999.65 786.539C2002.04 787.6 2003.75 784.872 2001.7 783.507ZM2003.75 781.082C2005.97 782.143 2008.02 778.959 2005.8 778.05C1999.99 775.624 1994.36 773.047 1988.38 770.925C1986.84 770.318 1985.64 772.138 1987.01 772.896C1992.65 775.624 1998.29 778.201 2003.75 781.082ZM2014.86 576.578C2014.86 578.549 2018.44 578.549 2018.27 576.578C2018.1 570.969 2018.1 565.511 2017.76 559.902C2017.76 558.386 2015.2 558.386 2015.2 559.902C2015.2 565.511 2015.03 570.969 2014.86 576.578ZM2021.35 563.237C2022.03 568.392 2021.86 573.546 2023.06 578.549C2023.4 580.216 2025.96 579.61 2026.13 578.245C2027.67 567.179 2024.08 553.383 2020.49 542.772C2019.98 541.256 2017.42 541.862 2017.76 543.53C2019.13 550.048 2020.49 556.567 2021.35 563.237ZM1924.32 888.867C1926.88 888.867 1926.88 885.077 1924.32 885.229C1917.48 885.532 1910.99 883.561 1905.87 879.468C1904.67 878.558 1902.96 879.923 1903.99 881.136C1909.45 886.138 1916.63 888.867 1924.32 888.867ZM1912.87 895.992C1914.58 895.841 1914.07 893.415 1912.53 893.263C1902.45 892.96 1894.08 888.412 1890.83 879.62C1890.32 878.255 1887.93 878.862 1888.44 880.226C1890.83 889.777 1901.59 897.357 1912.87 895.992ZM1796.36 1064.26C1798.24 1064.42 1798.75 1061.54 1796.87 1061.23C1787.14 1059.57 1779.11 1055.93 1772.79 1049.1C1771.93 1048.2 1770.05 1049.41 1770.91 1050.47C1776.54 1057.9 1785.94 1063.51 1796.36 1064.26ZM1778.77 1065.93C1780.64 1066.24 1781.33 1063.96 1779.62 1063.35C1769.2 1060.02 1761.85 1052.29 1762.71 1041.98C1762.71 1041.22 1761.51 1041.22 1761.34 1041.98C1759.97 1052.14 1767.15 1063.66 1778.77 1065.93ZM1312.9 42.654C1314.61 42.654 1314.61 40.2284 1312.9 40.2284C1303.85 40.2284 1294.62 40.38 1285.57 40.38C1284.2 40.38 1284.03 42.3508 1285.57 42.3508C1294.62 42.5024 1303.68 42.654 1312.9 42.654ZM1311.19 33.7098C1313.24 33.7098 1313.24 30.981 1311.19 30.981C1293.09 30.3746 1274.64 31.1326 1256.53 31.4358C1255.16 31.4358 1255.16 33.255 1256.53 33.255C1274.64 33.5582 1292.91 34.3161 1311.19 33.7098ZM1148.73 728.326C1150.61 728.174 1151.29 725.749 1149.24 725.294C1137.97 722.717 1124.47 725.749 1114.05 729.69C1112.17 730.448 1112.86 733.329 1114.91 732.571C1120.37 730.752 1125.84 729.539 1131.48 728.781C1137.46 728.023 1143.09 728.629 1148.73 728.326ZM1135.24 738.938C1137.8 738.938 1137.97 735.3 1135.24 735.3C1119.52 735.603 1104.31 739.393 1090.31 745.608C1088.94 746.215 1090.14 748.034 1091.5 747.427C1105.34 741.818 1119.86 739.241 1135.24 738.938ZM905.635 336.6C907.173 337.206 908.71 335.236 907.002 334.478C898.29 330.688 888.723 328.869 878.985 328.717C877.79 328.717 877.79 330.385 878.985 330.385C888.381 330.839 896.923 332.962 905.635 336.6ZM898.973 342.816C901.023 343.422 901.877 340.693 899.827 339.935C882.402 333.871 862.073 334.326 844.306 339.177C843.281 339.48 843.623 340.996 844.819 340.693C863.781 336.903 880.694 338.268 898.973 342.816ZM824.319 1000.75C826.369 1000.9 826.369 998.017 824.319 997.865C813.385 996.804 805.185 992.256 799.035 984.221C798.352 983.312 796.985 984.07 797.498 984.979C802.11 993.924 813.215 1000.29 824.319 1000.75ZM810.652 1005.44C812.702 1005.44 812.873 1003.02 811.165 1002.41C802.452 999.684 794.594 997.865 787.419 992.256C780.414 986.799 775.973 979.977 773.069 972.245C772.727 971.487 771.531 971.791 771.702 972.549C774.094 988.315 791.69 1005.6 810.652 1005.44ZM699.269 857.335C699.952 855.667 696.706 854.303 695.852 856.122C691.069 866.128 681.16 872.949 668.689 872.646C667.152 872.646 667.152 874.617 668.689 874.769C681.844 875.678 695.169 868.705 699.269 857.335ZM693.119 846.42C693.119 844.601 690.214 844.449 689.702 845.965C688.677 848.391 688.164 850.665 686.456 852.939C684.748 855.213 682.527 856.88 679.964 858.396C678.939 859.002 679.623 860.67 680.819 860.215C686.627 858.396 692.777 852.332 693.119 846.42ZM306.693 547.926C309.085 547.774 309.085 544.439 306.693 544.591C295.077 545.197 283.973 544.742 272.527 543.681C271.331 543.53 271.16 545.349 272.185 545.5C283.289 547.774 295.248 548.381 306.693 547.926ZM294.735 556.264C296.443 556.264 296.443 553.99 294.735 553.838C276.114 553.535 258.689 550.352 241.947 542.923C240.752 542.468 239.727 543.984 240.922 544.439C257.493 552.171 275.943 556.415 294.735 556.264ZM247.414 1020.3C258.86 1004.54 260.227 984.979 254.931 967.091C254.247 964.969 250.66 965.878 251.172 968.001C260.227 1000.75 241.264 1035.92 201.631 1041.83C200.264 1041.98 200.606 1044.1 201.972 1044.1C220.935 1043.5 237.335 1034.25 247.414 1020.3ZM227.597 1018.33C228.964 1016.51 226.06 1014.69 224.352 1016.06C209.66 1028.34 194.456 1036.22 173.443 1035.92C171.564 1035.92 171.735 1038.19 173.443 1038.34C193.089 1040.31 216.322 1033.49 227.597 1018.33ZM122.193 40.38C124.927 40.38 124.927 36.5901 122.193 36.5901C111.943 36.7417 101.693 36.4385 91.4432 37.0449C89.3932 37.1965 89.3932 39.9252 91.4432 39.9252C101.522 40.38 111.943 40.2284 122.193 40.38ZM117.068 30.981C118.777 30.8294 119.46 28.4039 117.41 28.1007C102.547 25.9783 85.2932 26.5847 70.4307 28.5555C68.7224 28.8587 69.2349 31.2842 70.7724 31.2842C85.8057 31.5874 102.035 32.0422 117.068 30.981ZM49.2474 767.741C51.1265 767.438 51.1265 764.558 49.2474 764.255C39.339 762.739 27.039 766.074 18.839 770.925C17.3015 771.834 18.3265 774.412 20.2057 773.654C24.8182 771.986 29.4307 770.167 34.3848 769.257C39.1682 768.196 44.2932 768.348 49.2474 767.741ZM49.0765 776.231C50.614 775.776 50.4432 773.654 48.7349 773.654C31.3098 773.654 13.714 784.568 4.31816 796.848C3.63483 797.757 5.17233 798.819 6.0265 798.061C11.8348 792.603 18.1557 787.6 25.5015 783.962C32.8474 780.172 40.8765 778.505 49.0765 776.231Z" fill="white"/>
</svg>
