<svg width="328" height="1084" viewBox="0 0 328 1084" fill="none" xmlns="http://www.w3.org/2000/svg">
<path d="M-1808.68 880.187C-1809.7 883.74 -1810.71 887.293 -1811.56 890.847C-1812.23 893.164 -1816.13 892.237 -1815.45 889.92C-1815.11 888.684 -1814.94 887.603 -1814.6 886.367C-1815.62 886.367 -1816.8 885.903 -1817.48 884.822C-1831.53 861.801 -1842.02 836.926 -1848.96 811.279C-1863.69 756.741 -1864.87 700.194 -1865.04 644.265C-1865.38 580.92 -1863.86 517.729 -1862.16 454.384C-1858.61 325.377 -1853.53 196.369 -1849.13 67.2075C-1847.61 21.4755 -1853.36 -36.9255 -1807.16 -66.8985C-1764.34 -94.7085 -1702.56 -89.7645 -1652.97 -90.537C-1512.49 -92.7 -1372.02 -94.0905 -1231.71 -94.7085C-949.567 -96.099 -667.427 -95.3265 -385.457 -94.245C-247.01 -93.7815 -108.564 -92.391 29.5442 -84.5115C99.2751 -80.4945 168.837 -74.9325 238.229 -66.744C260.909 -64.1175 287.989 -62.727 304.745 -46.5045C314.223 -37.5435 317.777 -25.338 319.977 -13.4415C322.685 0.617996 324.378 14.6775 325.562 28.8915C336.056 154.191 298.482 278.718 281.05 402.163C263.109 529.162 256.001 657.243 259.386 785.323C259.555 788.568 255.493 789.34 253.462 787.795C246.692 795.211 237.214 800.156 226.72 801.855C210.472 804.482 199.64 797.375 185.593 791.503C159.867 780.997 146.496 806.645 147.173 826.112C147.681 843.261 153.774 860.256 150.05 877.56C147.173 891.002 137.526 902.435 122.97 906.452C108.584 910.469 92.8436 906.143 83.1963 895.637C72.5336 884.204 72.8722 869.062 76.765 855.158C81.3347 838.626 90.9821 822.713 88.4432 805.254C85.7352 787.023 67.4562 779.298 49.6849 786.868C7.71094 804.945 30.5597 858.093 39.3607 888.066C45.2845 908.151 51.2081 928.236 56.9625 948.321C62.2094 966.397 67.6254 984.629 68.8101 1003.32C70.8411 1032.06 59.6707 1064.81 29.375 1078.41C14.481 1085.05 -2.2749 1084.44 -17.6766 1079.65C-32.2322 1075.17 -48.3108 1067.9 -53.3883 1053.69C-58.8043 1038.55 -53.7269 1019.85 -50.5111 1004.56C-46.7877 986.946 -41.3715 969.642 -35.9554 952.493C-24.785 917.267 -12.4298 881.577 -13.6146 844.497C-14.1223 826.729 -16.8303 806.645 -28.6779 791.812C-35.2787 783.47 -45.9413 776.98 -57.6196 776.517C-66.759 776.208 -73.8677 780.843 -81.9916 783.779C-98.9166 789.804 -117.026 784.551 -132.428 777.289C-142.922 772.345 -153.923 764.775 -166.447 767.402C-174.741 769.101 -181.68 774.508 -189.296 777.753C-204.529 784.242 -221.284 782.388 -236.517 776.517C-254.288 769.564 -266.813 756.278 -283.738 748.243C-292.877 743.917 -305.74 742.373 -313.695 749.634C-316.064 751.797 -317.249 754.269 -317.926 756.895L-322.834 756.587C-321.142 748.553 -315.895 742.218 -305.063 740.055C-289.323 736.965 -275.952 745.926 -264.443 754.269C-248.534 765.702 -230.085 777.135 -208.929 776.672C-190.481 776.363 -177.618 760.449 -159.17 761.685C-150.199 762.303 -142.414 766.474 -134.628 770.337C-125.489 774.972 -116.011 779.143 -105.517 780.688C-93.1621 782.542 -84.1918 778.68 -73.1906 774.508C-67.0975 772.191 -61.1737 771.109 -54.573 771.728C-17.5072 775.745 -8.87561 816.841 -8.19861 844.497C-7.35242 879.568 -18.1843 914.022 -28.847 947.394C-34.4324 965.007 -40.0176 982.775 -44.2488 1000.7C-46.4491 1010.43 -48.3108 1020.32 -49.3263 1030.21C-50.3418 1039.17 -51.0189 1049.21 -45.6029 1057.24C-39.5099 1066.2 -26.9852 1071.15 -16.4917 1074.55C-6.50598 1077.64 4.32605 1079.34 14.8195 1077.48C32.5907 1074.39 46.1306 1062.03 54.0854 1047.82C74.0569 1011.82 56.2856 969.642 45.6229 933.644C39.6992 913.558 33.7754 893.474 27.8517 873.388C22.7742 856.239 16.8503 838.471 18.7122 820.549C20.0662 806.644 26.1592 794.13 38.6837 785.787C48.5002 779.298 61.8708 775.59 73.7184 779.298C108.076 790.113 90.8127 829.974 83.3657 851.295C76.765 869.99 76.9341 893.319 100.798 901.353C123.309 908.924 142.603 891.774 144.634 871.998C147.342 844.806 125.001 800.31 162.913 784.86C179.33 778.062 191.686 789.495 206.41 794.284C223.674 800.001 242.969 792.585 251.939 778.371C251.262 750.561 250.923 722.751 251.262 694.941C252.616 571.804 264.125 448.977 285.281 327.385C295.944 266.358 309.145 205.485 315.746 143.994C318.962 113.403 320.823 82.503 319.639 51.7575C319.131 36.462 317.777 21.012 315.746 5.7165C313.884 -8.343 312.53 -24.5655 303.898 -36.771C287.65 -59.946 247.369 -59.328 220.966 -62.2635C186.947 -65.9715 152.927 -69.216 118.908 -71.997C52.2238 -77.4045 -14.7992 -80.8035 -81.653 -83.121C-217.391 -87.756 -353.299 -87.756 -489.038 -88.2195C-762.715 -88.992 -1036.39 -89.7645 -1310.07 -87.9105C-1378.11 -87.447 -1446.15 -86.829 -1514.19 -86.0565C-1581.04 -85.284 -1648.4 -85.902 -1715.25 -82.812C-1740.13 -81.7305 -1765.86 -79.104 -1788.54 -69.3705C-1814.77 -58.092 -1830.51 -37.698 -1836.44 -12.051C-1842.87 16.068 -1841.35 46.1955 -1842.36 74.778C-1843.38 105.06 -1844.39 135.342 -1845.41 165.624C-1849.64 290.769 -1855.73 415.914 -1857.42 541.059C-1858.27 599.923 -1859.46 659.252 -1855.39 717.962C-1851.67 773.427 -1841.51 829.356 -1812.91 878.796L-1808.68 880.187Z" fill="#CACACA"/>
</svg>
